Coordinates
version=1
nRows=19
nColumns=63
inDegrees=yes

Units are S.I. units (second, meters, Newtons, ...)
If the header above contains a line with 'inDegrees', this indicates whether rotational values are in degrees (yes) or radians (no).

endheader
time	pelvis_tilt	pelvis_list	pelvis_rotation	pelvis_tx	pelvis_ty	pelvis_tz	hip_flexion_r	hip_adduction_r	hip_rotation_r	knee_angle_r	knee_angle_r_beta	ankle_angle_r	subtalar_angle_r	mtp_angle_r	hip_flexion_l	hip_adduction_l	hip_rotation_l	knee_angle_l	knee_angle_l_beta	ankle_angle_l	subtalar_angle_l	mtp_angle_l	L5_S1_Flex_Ext	L5_S1_Lat_Bending	L5_S1_axial_rotation	L4_L5_Flex_Ext	L4_L5_Lat_Bending	L4_L5_axial_rotation	L3_L4_Flex_Ext	L3_L4_Lat_Bending	L3_L4_axial_rotation	L2_L3_Flex_Ext	L2_L3_Lat_Bending	L2_L3_axial_rotation	L1_L2_Flex_Ext	L1_L2_Lat_Bending	L1_L2_axial_rotation	L1_T12_Flex_Ext	L1_T12_Lat_Bending	L1_T12_axial_rotation	Abs_r3	Abs_r2	Abs_r1	Abs_t1	Abs_t2	neck_flexion	neck_bending	neck_rotation	arm_flex_r	arm_add_r	arm_rot_r	elbow_flex_r	pro_sup_r	wrist_flex_r	wrist_dev_r	arm_flex_l	arm_add_l	arm_rot_l	elbow_flex_l	pro_sup_l	wrist_flex_l	wrist_dev_l
3.075472	-4.480373	-2.895040	89.895714	0.254434	0.873928	0.709723	6.218543	-0.910375	3.239495	11.153809	0.194671	31.185062	-8.626557	0.000000	6.843445	1.036829	-5.530319	12.064338	0.210562	35.147616	8.054074	0.000000	0.340471	-0.068584	0.039087	0.632289	-0.091216	0.041530	0.559360	-0.166754	0.041530	0.389125	-0.166754	0.034201	0.316162	-0.139856	0.031758	0.194545	-0.106236	0.029315	2.431953	-0.775833	0.217389	0.000000	0.000000	28.198286	-1.357730	18.866340	12.990219	-15.592807	61.121219	55.794247	40.209278	8.279329	12.113523	17.206950	-14.921299	58.942890	54.950506	84.873086	23.374934	3.934911
3.094340	-4.516110	-2.910128	89.660848	0.254621	0.873938	0.709772	6.297517	-0.952822	3.263502	11.204243	0.195551	31.278818	-8.234995	0.000000	6.806353	1.077543	-5.594297	11.994411	0.209342	35.135203	7.852639	0.000000	0.359551	-0.065564	0.090559	0.667722	-0.087201	0.096219	0.590707	-0.159413	0.096219	0.410931	-0.159413	0.079239	0.333879	-0.133699	0.073579	0.205448	-0.101559	0.067919	2.568238	-0.741676	0.503662	0.000000	0.000000	28.221915	-0.968488	18.574412	12.896454	-15.535337	60.817246	55.708848	41.271798	8.596073	12.878328	17.572357	-14.954124	59.987211	54.907580	84.906285	23.295146	3.929746
3.113208	-4.557986	-2.908958	89.463342	0.254762	0.873930	0.709745	6.339061	-1.007762	3.178882	11.246630	0.196291	31.400824	-7.750284	0.000000	6.739920	1.133310	-5.585346	11.899023	0.207677	35.122661	7.603155	0.000000	0.376502	-0.063273	0.140978	0.699201	-0.084152	0.149789	0.618555	-0.153841	0.149789	0.430304	-0.153841	0.123356	0.349620	-0.129025	0.114545	0.215133	-0.098009	0.105734	2.689315	-0.715751	0.784078	0.000000	0.000000	28.240564	-0.681394	18.065437	12.740528	-15.482766	60.399654	55.655521	42.516672	8.994824	13.684351	17.929846	-14.992840	61.066315	54.870121	84.562629	23.228646	4.017910
3.132075	-4.605082	-2.894152	89.282449	0.254900	0.873905	0.709697	6.354701	-1.059518	3.148247	11.289629	0.197041	31.487711	-7.391622	0.000000	6.660525	1.195267	-5.549940	11.802474	0.205992	35.115688	7.336940	0.000000	0.390815	-0.062007	0.195262	0.725782	-0.082470	0.207466	0.642069	-0.150764	0.207466	0.446662	-0.150764	0.170854	0.362910	-0.126445	0.158650	0.223311	-0.096049	0.146447	2.791550	-0.701438	1.085989	0.000000	0.000000	28.250619	-0.486725	17.320694	12.562992	-15.440507	59.960054	55.607292	43.763590	9.513423	14.463089	18.307398	-15.041206	62.224590	54.794965	84.072780	23.097262	3.860142
3.150943	-4.663367	-2.876186	89.125785	0.255005	0.873854	0.709620	6.356885	-1.120896	3.111491	11.338630	0.197896	31.562289	-7.093762	0.000000	6.574850	1.274754	-5.459270	11.692590	0.204074	35.096833	7.027743	0.000000	0.402839	-0.062083	0.249588	0.748112	-0.082571	0.265188	0.661824	-0.150949	0.265188	0.460404	-0.150949	0.218390	0.374076	-0.126600	0.202791	0.230182	-0.096167	0.187191	2.877437	-0.702299	1.388136	0.000000	0.000000	28.252174	-0.368108	16.400401	12.339717	-15.395160	59.417185	55.573856	45.213401	10.167147	15.240538	18.648031	-15.092896	63.319289	54.715978	83.407661	22.923773	3.647254
3.169811	-4.725304	-2.848793	88.986807	0.255078	0.873795	0.709536	6.342010	-1.196800	2.956595	11.395415	0.198888	31.656983	-6.683694	0.000000	6.487822	1.359428	-5.349850	11.593435	0.202344	35.077540	6.711853	0.000000	0.410170	-0.062163	0.298042	0.761727	-0.082677	0.316670	0.673869	-0.151143	0.316670	0.468783	-0.151143	0.260787	0.380884	-0.126763	0.242159	0.234371	-0.096290	0.223532	2.929804	-0.703200	1.657622	0.000000	0.000000	28.247734	-0.301542	15.363188	12.169248	-15.381332	59.015718	55.561210	46.601633	10.816389	15.860263	18.949528	-15.175527	64.383027	54.681919	82.484598	22.499908	3.282063
3.188679	-4.793928	-2.824592	88.878386	0.255115	0.873724	0.709423	6.315202	-1.277060	2.820383	11.444260	0.199740	31.718433	-6.375662	0.000000	6.411220	1.452041	-5.215841	11.501008	0.200730	35.051317	6.396905	0.000000	0.414512	-0.063263	0.337938	0.769790	-0.084140	0.359059	0.681001	-0.153818	0.359059	0.473745	-0.153818	0.295695	0.384916	-0.129006	0.274574	0.236852	-0.097994	0.253453	2.960816	-0.715643	1.879508	0.000000	0.000000	28.240533	-0.308347	14.146421	12.005327	-15.365306	58.616916	55.560873	47.991063	11.526379	16.417442	19.153220	-15.270098	65.233153	54.705287	81.478686	22.001717	2.949068
3.207547	-4.867157	-2.808804	88.785844	0.255136	0.873648	0.709272	6.288323	-1.361840	2.686201	11.488516	0.200512	31.774678	-6.104776	0.000000	6.346137	1.551848	-5.047023	11.407700	0.199102	35.006362	6.051553	0.000000	0.416982	-0.064578	0.367316	0.774377	-0.085889	0.390274	0.685060	-0.157016	0.390274	0.476569	-0.157016	0.321402	0.387209	-0.131688	0.298445	0.238263	-0.100032	0.275487	2.978460	-0.730524	2.042904	0.000000	0.000000	28.232967	-0.360276	12.828562	11.875049	-15.356473	58.292489	55.576748	49.366004	12.206883	16.801971	19.238238	-15.374998	65.810157	54.793476	80.459367	21.473669	2.683859
3.226415	-4.947546	-2.804710	88.725501	0.255135	0.873576	0.709052	6.262262	-1.459668	2.485921	11.523608	0.201125	31.858821	-5.773777	0.000000	6.295907	1.662818	-4.818366	11.314157	0.197469	34.938536	5.668184	0.000000	0.418997	-0.067340	0.386523	0.778120	-0.089562	0.410681	0.688371	-0.163730	0.410681	0.478872	-0.163730	0.338208	0.389081	-0.137320	0.314050	0.239415	-0.104310	0.289892	2.992855	-0.761763	2.149724	0.000000	0.000000	28.225454	-0.451880	11.377648	11.729124	-15.341927	57.939795	55.620133	50.773548	12.824259	17.013369	19.228792	-15.490217	66.137672	54.948276	79.594814	20.993809	2.572767
3.245283	-5.022492	-2.805479	88.676846	0.255113	0.873533	0.708813	6.232609	-1.559103	2.230189	11.536660	0.201353	31.960703	-5.365563	0.000000	6.251856	1.771376	-4.552490	11.213621	0.195715	34.842441	5.242561	0.000000	0.419182	-0.068627	0.390980	0.778463	-0.091274	0.415416	0.688674	-0.166859	0.415416	0.479083	-0.166859	0.342107	0.389252	-0.139944	0.317671	0.239521	-0.106303	0.293235	2.994175	-0.776319	2.174512	0.000000	0.000000	28.219417	-0.554458	9.971458	11.663278	-15.345717	57.740110	55.665047	52.078870	13.355930	16.984305	19.128687	-15.621147	66.226784	55.153520	78.645798	20.567461	2.649442
3.264151	-5.099025	-2.815414	88.636338	0.255126	0.873516	0.708554	6.214367	-1.656504	2.001357	11.547836	0.201548	32.068444	-4.993840	0.000000	6.223304	1.876995	-4.286629	11.120429	0.194088	34.726631	4.820163	0.000000	0.418991	-0.071730	0.395358	0.778108	-0.095401	0.420068	0.688360	-0.174404	0.420068	0.478865	-0.174404	0.345939	0.389075	-0.146272	0.321229	0.239412	-0.111110	0.296519	2.992812	-0.811423	2.198865	0.000000	0.000000	28.213316	-0.635149	8.559778	11.579444	-15.352159	57.511596	55.740766	53.226549	13.762376	16.800905	19.038706	-15.738450	66.209631	55.332980	77.977097	20.377432	2.769421
3.283019	-5.168053	-2.839027	88.629762	0.255142	0.873533	0.708292	6.204859	-1.737151	1.854134	11.545245	0.201503	32.147881	-4.770200	0.000000	6.220741	1.967606	-4.044486	11.042064	0.192720	34.604053	4.474536	0.000000	0.419833	-0.076533	0.396565	0.779672	-0.101788	0.421350	0.689744	-0.186081	0.421350	0.479828	-0.186081	0.346994	0.389857	-0.156065	0.322209	0.239893	-0.118549	0.297424	2.998827	-0.865752	2.205576	0.000000	0.000000	28.206699	-0.721438	7.136520	11.464474	-15.339249	57.227142	55.817983	54.259083	14.065232	16.471019	18.944213	-15.833627	66.047144	55.512477	77.710813	20.389976	2.991025
3.301887	-5.232673	-2.858962	88.639460	0.255189	0.873601	0.708050	6.195287	-1.817342	1.641931	11.544190	0.201484	32.250372	-4.481074	0.000000	6.227503	2.038224	-3.914940	10.986105	0.191744	34.490116	4.297893	0.000000	0.418805	-0.083217	0.399444	0.777763	-0.110679	0.424409	0.688055	-0.202334	0.424409	0.478653	-0.202334	0.349514	0.388903	-0.169696	0.324548	0.239305	-0.128903	0.299583	2.991485	-0.941367	2.221588	0.000000	0.000000	28.199168	-0.666809	5.914015	11.344782	-15.334105	56.971922	55.929878	54.993900	14.176319	16.055771	18.923319	-15.905657	65.869076	55.663833	77.661117	20.703604	3.382985
3.320755	-5.295291	-2.878536	88.649691	0.255248	0.873726	0.707840	6.197989	-1.896667	1.430872	11.559573	0.201753	32.353979	-4.208401	0.000000	6.240375	2.107327	-3.769811	10.938245	0.190908	34.351947	4.093477	0.000000	0.416211	-0.092012	0.417949	0.772946	-0.122376	0.444071	0.683794	-0.223718	0.444071	0.475688	-0.223718	0.365705	0.386494	-0.187631	0.339583	0.237823	-0.142527	0.313462	2.972957	-1.040860	2.324506	0.000000	0.000000	28.190099	-0.632724	4.727352	11.129419	-15.325655	56.515622	56.070172	55.612518	14.219091	15.686076	19.049661	-15.945603	65.899989	55.751278	77.844572	21.027304	3.588794
3.339623	-5.345353	-2.901823	88.669488	0.255318	0.873901	0.707650	6.203189	-1.945148	1.399570	11.567507	0.201891	32.376998	-4.228316	0.000000	6.263709	2.156894	-3.664107	10.902927	0.190292	34.210824	3.948682	0.000000	0.412456	-0.101760	0.443759	0.765972	-0.135340	0.471494	0.677624	-0.247418	0.471494	0.471396	-0.247418	0.388289	0.383007	-0.207508	0.360554	0.235677	-0.157626	0.332819	2.946133	-1.151125	2.468053	0.000000	0.000000	28.181596	-0.624809	3.568756	10.869187	-15.302597	55.946392	56.195326	56.267175	14.286495	15.320673	19.225099	-15.962315	65.945117	55.834811	78.290178	21.374107	3.795830
3.358491	-5.377833	-2.925649	88.700678	0.255352	0.874131	0.707498	6.208176	-1.978217	1.369563	11.569502	0.201926	32.374007	-4.280172	0.000000	6.290721	2.192428	-3.534172	10.870366	0.189724	34.055946	3.784559	0.000000	0.406479	-0.110866	0.475476	0.754872	-0.147452	0.505193	0.667804	-0.269561	0.505193	0.464565	-0.269561	0.416041	0.377456	-0.226079	0.386324	0.232262	-0.171732	0.356607	2.903438	-1.254143	2.644453	0.000000	0.000000	28.175177	-0.694600	2.408376	10.605793	-15.295630	55.387049	56.321691	56.794431	14.311233	14.882278	19.455612	-15.959912	66.084767	55.917033	78.676132	21.613314	4.031243
3.377358	-5.396311	-2.957593	88.734367	0.255361	0.874393	0.707367	6.223530	-1.986984	1.455079	11.570095	0.201936	32.319208	-4.509373	0.000000	6.330344	2.215752	-3.395602	10.848474	0.189342	33.898673	3.607376	0.000000	0.399692	-0.119001	0.510216	0.742267	-0.158272	0.542104	0.656653	-0.289340	0.542104	0.456807	-0.289340	0.446439	0.371154	-0.242667	0.414550	0.228384	-0.184333	0.382662	2.854957	-1.346165	2.837667	0.000000	0.000000	28.171230	-0.850639	1.213096	10.308784	-15.259855	54.682510	56.406644	57.472497	14.497698	14.590856	19.629710	-15.926883	66.076404	56.004088	79.332623	21.819009	4.204230
3.396226	-5.402882	-2.998139	88.776019	0.255355	0.874677	0.707242	6.241713	-1.968573	1.707282	11.552236	0.201625	32.195712	-4.983307	0.000000	6.376513	2.228552	-3.250041	10.824990	0.188932	33.744231	3.436733	0.000000	0.393123	-0.125801	0.541580	0.730069	-0.167315	0.575428	0.645862	-0.305872	0.575428	0.449300	-0.305872	0.473882	0.365054	-0.256533	0.440034	0.224630	-0.194865	0.406185	2.808039	-1.423081	3.012104	0.000000	0.000000	28.168935	-1.076090	0.018890	10.025685	-15.198999	53.953589	56.444712	58.169488	14.813887	14.416882	19.711968	-15.880512	65.884237	56.111453	80.204115	21.967708	4.341795
3.415094	-5.394014	-3.034549	88.818794	0.255313	0.874985	0.707134	6.260113	-1.955954	1.744616	11.535756	0.201337	32.147506	-5.126772	0.000000	6.420497	2.227219	-3.126131	10.811071	0.188689	33.613271	3.294793	0.000000	0.384825	-0.130184	0.570670	0.714659	-0.173145	0.606336	0.632230	-0.316530	0.606336	0.439817	-0.316530	0.499336	0.357349	-0.265471	0.463669	0.219889	-0.201655	0.428002	2.748770	-1.472668	3.173893	0.000000	0.000000	28.156882	-1.358593	-1.192697	9.809932	-15.164710	53.365868	56.467964	58.817856	15.105917	14.152540	19.805372	-15.845334	65.818790	56.234816	80.546137	21.834822	4.482567
